<mxfile host="app.diagrams.net" modified="2024-01-15T22:35:29.804Z" agent="Mozilla/5.0 (Windows NT 10.0; Win64; x64) AppleWebKit/537.36 (KHTML, like Gecko) Chrome/120.0.0.0 Safari/537.36" version="22.1.18" etag="aK-WlyT7tswzgDthURHN" type="github">
  <diagram name="Page-1" id="rr6CU5yo0qy7Ds17a9dp">
    <mxGraphModel>
      <root>
        <mxCell id="0" />
        <mxCell id="1" parent="0" />
      </root>
    </mxGraphModel>
  </diagram>
</mxfile>
